<?xml version="1.0" encoding="utf-8"?>
<!-- Generator: Adobe Illustrator 16.2.1, SVG Export Plug-In . SVG Version: 6.00 Build 0)  -->
<!DOCTYPE svg PUBLIC "-//W3C//DTD SVG 1.1//EN" "http://www.w3.org/Graphics/SVG/1.1/DTD/svg11.dtd">
<svg version="1.1" id="Layer_1" xmlns="http://www.w3.org/2000/svg" xmlns:xlink="http://www.w3.org/1999/xlink" x="0px" y="0px"
	 width="741px" height="595px" viewBox="0 0 741 595" style="enable-background:new 0 0 741 595;" xml:space="preserve">
<style type="text/css">
<![CDATA[
	.st0{fill:none;stroke:#000000;stroke-miterlimit:10;}
	.st1{fill:none;stroke:#000000;stroke-width:1.3965;stroke-miterlimit:10;}
]]>
</style>
<rect x="78.6" y="136.6" transform="matrix(0.7071 0.7071 -0.7071 0.7071 137.3465 -23.3686)" class="st1" width="36.7" height="35"/>
<rect x="188.4" y="139.7" transform="matrix(0.7071 0.7071 -0.7071 0.7071 171.695 -100.1683)" class="st1" width="36.7" height="35"/>
<rect x="145.7" y="206.8" transform="matrix(0.7071 0.7071 -0.7071 0.7071 206.6572 -50.2863)" class="st1" width="36.7" height="35"/>
<rect x="203.7" y="283.1" transform="matrix(0.7072 0.7071 -0.7071 0.7072 277.5726 -68.9472)" class="st1" width="36.7" height="35"/>
<polyline class="st0" points="96.8,182 96.9,224.5 137,224.5 "/>
<rect x="48.5" y="327.5" class="st0" width="113" height="41"/>
<polyline class="st0" points="137.9,326.7 137.7,288.5 162.1,288.5 164.6,251.1 "/>
<polyline class="st0" points="206.7,181.7 205.8,203.9 240.5,243.9 240.5,294 "/>
<rect x="175" y="295.7" transform="matrix(0.7071 0.7071 -0.7071 0.7071 278.1351 -44.9464)" class="st1" width="36.7" height="35"/>
<rect x="286.1" y="389.9" transform="matrix(0.7071 0.7071 -0.7071 0.7071 377.2703 -95.9263)" class="st1" width="36.7" height="35"/>
<rect x="242.1" y="365.9" transform="matrix(0.7071 0.7071 -0.7071 0.7071 347.4364 -71.8674)" class="st1" width="36.7" height="35"/>
<rect x="301.4" y="533.4" transform="matrix(0.7071 0.7071 -0.7071 0.7071 483.1642 -64.7047)" class="st1" width="36.7" height="35"/>
<polyline class="st0" points="193.5,341 193.3,383.5 234,383.5 "/>
<rect x="144.5" y="487.5" class="st0" width="113" height="40"/>
<polyline class="st0" points="234.4,485.8 234.1,447.5 258.6,447.5 261.1,410.1 "/>
<polyline class="st0" points="305.1,432.3 304.5,454.4 339.5,494.2 339.5,545 "/>
<rect x="225.1" y="20.6" transform="matrix(0.7071 0.7071 -0.7071 0.7071 98.2494 -160.9309)" class="st1" width="36.7" height="35"/>
<rect x="541.9" y="91.4" transform="matrix(0.7071 0.7071 -0.7071 0.7071 241.0969 -364.2092)" class="st1" width="36.7" height="35"/>
<rect x="292.2" y="90.8" transform="matrix(0.7071 0.7071 -0.7071 0.7071 167.5524 -187.8492)" class="st1" width="36.7" height="35"/>
<rect x="350.2" y="167.1" transform="matrix(0.7071 0.7071 -0.7071 0.7071 238.495 -206.5073)" class="st1" width="36.7" height="35"/>
<polyline class="st0" points="243.5,66 243.4,108.5 284,108.5 "/>
<rect x="195.5" y="211.5" class="st0" width="113" height="41"/>
<polyline class="st0" points="284.4,210.7 284.2,172.5 308.6,172.5 311.1,135.1 "/>
<rect x="432.3" y="192.6" transform="matrix(0.7071 0.7071 -0.7071 0.7071 280.5799 -257.1075)" class="st1" width="36.7" height="35"/>
<rect x="468.9" y="73.6" transform="matrix(0.7071 0.7071 -0.7071 0.7071 207.1324 -317.8689)" class="st1" width="36.7" height="35"/>
<rect x="536.1" y="143.8" transform="matrix(0.7071 0.7071 -0.7071 0.7071 276.4334 -344.7858)" class="st1" width="36.7" height="35"/>
<polyline class="st0" points="487.5,119 487.3,161.5 528,161.5 "/>
<polyline class="st0" points="528.3,263.7 528.1,225.5 552.5,225.5 555,188.1 "/>
<polyline class="st0" points="353.5,65.7 352.7,87.9 387.5,127.9 387.5,178 "/>
<rect x="391.4" y="288.1" transform="matrix(0.7071 0.7071 -0.7071 0.7071 336.0952 -200.2153)" class="st1" width="36.7" height="35"/>
<rect x="501.3" y="291.2" transform="matrix(0.7071 0.7071 -0.7071 0.7071 370.455 -277.0187)" class="st1" width="36.7" height="35"/>
<rect x="458.6" y="358.3" transform="matrix(0.7071 0.7071 -0.7071 0.7071 405.4148 -227.1362)" class="st1" width="36.7" height="35"/>
<rect x="516.5" y="434.6" transform="matrix(0.7071 0.7071 -0.7071 0.7071 476.327 -245.7915)" class="st1" width="36.7" height="35"/>
<polyline class="st0" points="409.2,333 409.7,375.5 449,375.5 "/>
<rect x="361.5" y="479.5" class="st0" width="113" height="40"/>
<polyline class="st0" points="450.8,477.9 450.6,439.5 475,439.5 477.5,402.2 "/>
<polyline class="st0" points="519.7,333 518.8,355.3 553.5,395.4 553.5,445 "/>
<rect x="605.1" y="242.3" transform="matrix(0.7071 0.7071 -0.7071 0.7071 366.318 -364.701)" class="st1" width="36.7" height="35"/>
<rect x="663.1" y="318.6" transform="matrix(0.7071 0.7071 -0.7071 0.7071 437.2513 -383.3557)" class="st1" width="36.7" height="35"/>
<polyline class="st0" points="556.5,218 556.2,260.5 597,260.5 "/>
<rect x="507.5" y="363.5" class="st0" width="114" height="41"/>
<polyline class="st0" points="597.3,362.5 597.1,324.5 621.5,324.5 624,287 "/>
<polyline class="st0" points="666.4,217.5 665.7,239.5 700.5,279.4 700.5,330 "/>
</svg>
