<?xml version="1.0" encoding="utf-8"?>
<!-- Generator: Adobe Illustrator 16.2.1, SVG Export Plug-In . SVG Version: 6.00 Build 0)  -->
<!DOCTYPE svg PUBLIC "-//W3C//DTD SVG 1.1//EN" "http://www.w3.org/Graphics/SVG/1.1/DTD/svg11.dtd">
<svg version="1.1" id="Layer_1" xmlns="http://www.w3.org/2000/svg" xmlns:xlink="http://www.w3.org/1999/xlink" x="0px" y="0px"
	 width="144px" height="222.8px" viewBox="0 0 144 222.8" style="enable-background:new 0 0 144 222.8;" xml:space="preserve">
<style type="text/css">
<![CDATA[
	.st0{fill:#FFFFFF;stroke:#000000;stroke-width:2;stroke-miterlimit:10;}
	.st1{fill:#FFFF29;stroke:#000000;stroke-width:2;stroke-miterlimit:10;}
	.st2{fill:#7D90FF;stroke:#000000;stroke-width:2;stroke-miterlimit:10;}
	.st3{fill:#ED0C63;stroke:#000000;stroke-width:2;stroke-miterlimit:10;}
	.st4{fill:none;stroke:#000000;stroke-width:2;stroke-miterlimit:10;}
]]>
</style>
<rect x="29.6" y="55.4" transform="matrix(0.7071 0.7071 -0.7071 0.7071 53.6365 -7.2941)" class="st0" width="12" height="11.5"/>
<rect x="65.6" y="56.4" transform="matrix(0.7071 0.7071 -0.7071 0.7071 64.8878 -32.4571)" class="st2" width="12" height="11.5"/>
<rect x="51.6" y="78.4" transform="matrix(0.7071 0.7071 -0.7071 0.7071 76.3436 -16.1139)" class="st0" width="12" height="11.5"/>
<rect x="70.6" y="103.4" transform="matrix(0.7071 0.7071 -0.7071 0.7071 99.5825 -22.2273)" class="st1" width="12" height="11.5"/>
<polyline class="st4" points="35.7,70.1 35.6,84 49,84 "/>
<rect x="20" y="118" class="st3" width="37" height="13"/>
<polyline class="st0" points="49.1,117.6 49,105 57,105 57.8,92.8 "/>
<polyline class="st0" points="71.8,70.2 71.6,77.4 83,90.5 83,107 "/>
<rect x="61.6" y="137.4" transform="matrix(0.7071 0.7071 -0.7071 0.7071 120.9959 -5.9028)" class="st0" width="12" height="11.5"/>
<rect x="97.6" y="138.4" transform="matrix(0.7071 0.7071 -0.7071 0.7071 132.2429 -31.0673)" class="st2" width="12" height="11.5"/>
<rect x="83.6" y="160.4" transform="matrix(0.7071 0.7071 -0.7071 0.7071 143.6988 -14.7242)" class="st0" width="12" height="11.5"/>
<rect x="102.6" y="185.4" transform="matrix(0.7071 0.7071 -0.7071 0.7071 166.9414 -20.8369)" class="st1" width="12" height="11.5"/>
<polyline class="st4" points="67.7,152.1 67.6,166 81,166 "/>
<rect x="52" y="200" class="st3" width="37" height="13"/>
<polyline class="st0" points="81.1,199.6 81,187 89,187 89.8,174.8 "/>
<polyline class="st0" points="103.8,152.2 103.6,159.4 115,172.5 115,189 "/>
<rect x="77.6" y="17.4" transform="matrix(0.7071 0.7071 -0.7071 0.7071 40.8251 -52.3653)" class="st0" width="12" height="11.5"/>
<rect x="113.6" y="18.4" transform="matrix(0.7071 0.7071 -0.7071 0.7071 52.0764 -77.5282)" class="st2" width="12" height="11.5"/>
<rect x="99.6" y="40.4" transform="matrix(0.7071 0.7071 -0.7071 0.7071 63.5322 -61.1851)" class="st0" width="12" height="11.5"/>
<rect x="118.6" y="65.4" transform="matrix(0.7071 0.7071 -0.7071 0.7071 86.7749 -67.2978)" class="st1" width="12" height="11.5"/>
<polyline class="st4" points="83.7,32.1 83.6,46 97,46 "/>
<rect x="68" y="80" class="st3" width="37" height="13"/>
<polyline class="st0" points="97.1,79.6 97,67 105,67 105.8,54.8 "/>
<polyline class="st0" points="119.8,32.2 119.6,39.4 131,52.5 131,69 "/>
</svg>
